PathFileType	4	(X/Y/Z)	./resultDataOpenSim/trcMotMarkerGrf/sub06/qtm-13-06.trc
DataRate	CameraRate	NumFrames	NumMarkers	Units	OrigDataRate	OrigDataStartFrame	OrigNumFrames
250.000000	250.000000	10	24	m	250.000000	268	534
Frame#	Time	L.Toe.Tip			R.Toe.Tip			L.Ankle.Lat			R.Ankle.Lat			L.Ankle.Med			R.Ankle.Med			L.Heel			R.Heel			L.Knee.Lat			R.Knee.Lat			L.Knee.Med			R.Knee.Med			L.Thigh.Upper			R.Thigh.Upper			L.ASIS			R.ASIS			V.Sacral			L.Acromium			R.Acromium			C7			L.Elbow			R.Elbow			L.Wrist.Lat			R.Wrist.Lat
		X1	Y1	Z1	X2	Y2	Z2	X3	Y3	Z3	X4	Y4	Z4	X5	Y5	Z5	X6	Y6	Z6	X7	Y7	Z7	X8	Y8	Z8	X9	Y9	Z9	X10	Y10	Z10	X11	Y11	Z11	X12	Y12	Z12	X13	Y13	Z13	X14	Y14	Z14	X15	Y15	Z15	X16	Y16	Z16	X17	Y17	Z17	X18	Y18	Z18	X19	Y19	Z19	X20	Y20	Z20	X21	Y21	Z21	X22	Y22	Z22	X23	Y23	Z23	X24	Y24	Z24

268	1.068	0.051899043	-0.015306315	-0.073744748	0.84951364	0.097910517	0.11058025	-0.033332049	0.073636228	-0.10037818	0.71487441	0.072151512	0.13569947	-0.023582036	0.085690649	-0.014679067	0.72473292	0.10251723	0.050077157	-0.10830645	0.08567783	-0.052428182	0.67434516	0.030975743	0.075267241	0.19008544	0.37670573	-0.10653397	0.61169415	0.45365603	0.14434263	0.18104763	0.38186109	0.017319528	0.58823025	0.42954223	0.021682671	0.31206932	0.73768979	-0.15354732	0.39118831	0.74725093	0.19079078	0.40494936	0.78082114	-0.12831557	0.46223861	0.79645124	0.11411255	0.25729141	0.86605285	0.034534099	0.40434188	1.2802125	-0.16287522	0.38641336	1.2539528	0.19892419	0.31948307	1.3027871	0.013287999	0.44493185	0.95927493	-0.25355851	0.22366309	0.98565846	0.25180201	0.69733196	0.97200234	-0.19275734	0.2561846	0.75970001	0.32333231
269	1.072	0.052305984	-0.015286148	-0.073795774	0.85128922	0.092866062	0.10788502	-0.030775087	0.075881735	-0.10127535	0.71660039	0.067973377	0.13381979	-0.020462515	0.087602115	-0.015631849	0.72638966	0.098325748	0.047968085	-0.10499804	0.089313945	-0.053211805	0.67512163	0.028000996	0.073776192	0.19748127	0.37585884	-0.10706542	0.61827535	0.45148689	0.14354035	0.18861241	0.3808752	0.016938376	0.59435533	0.42794002	0.020754443	0.31953478	0.73696018	-0.15289511	0.39989293	0.74684209	0.19111067	0.41256932	0.78007796	-0.1279335	0.47087564	0.79589674	0.11420438	0.26508073	0.86526071	0.035630099	0.41131012	1.2796308	-0.16169968	0.39375787	1.2531897	0.20001077	0.326669	1.3019571	0.014503004	0.45139859	0.95864537	-0.25240105	0.23145364	0.98462297	0.25253112	0.70415994	0.97129371	-0.19167643	0.26436836	0.75872355	0.32417941
270	1.076	0.052695181	-0.015288267	-0.073831243	0.8535542	0.087072578	0.10514431	-0.028109223	0.078192787	-0.10216172	0.71826034	0.064289358	0.13217337	-0.01706197	0.089540038	-0.016593843	0.72831832	0.094217203	0.045893366	-0.1014126	0.093029613	-0.053940001	0.67586354	0.026169042	0.07246357	0.20505996	0.37496081	-0.10768859	0.62458331	0.44900142	0.14279645	0.19639541	0.37976507	0.016527304	0.60004928	0.42603471	0.020079289	0.32709241	0.73621634	-0.15221306	0.40888645	0.74647349	0.19152645	0.42028171	0.77931773	-0.12753678	0.47950644	0.79538012	0.11429933	0.27307818	0.86450581	0.036401657	0.41826955	1.2790786	-0.16048513	0.40113421	1.2524747	0.20111089	0.33385484	1.3011367	0.015733659	0.45781534	0.95802288	-0.25124684	0.23931263	0.98361455	0.25326329	0.71091973	0.97044041	-0.19060054	0.2727143	0.75777889	0.32501646
271	1.08	0.053061347	-0.01531881	-0.073859125	0.85715371	0.080200845	0.10271551	-0.025182631	0.08047506	-0.10305096	0.72044163	0.061735783	0.1308981	-0.013389855	0.091477399	-0.017578688	0.7313358	0.090621488	0.044141613	-0.097531929	0.096813349	-0.054616887	0.67721708	0.025950388	0.071406115	0.212849	0.37398984	-0.10833293	0.63064133	0.44617872	0.14215677	0.20440541	0.37852267	0.016093266	0.60536195	0.42378964	0.019638563	0.334744	0.73546349	-0.1514895	0.41818086	0.74611908	0.19207346	0.42809415	0.77854183	-0.12711882	0.48802323	0.79490531	0.11438672	0.2810523	0.86387587	0.036918726	0.42521036	1.2785576	-0.15923767	0.40855079	1.2518071	0.20222695	0.34101362	1.3003334	0.016981315	0.46417026	0.95741138	-0.25010909	0.24720308	0.98263564	0.254005	0.71761034	0.9694551	-0.18954071	0.28120557	0.75686189	0.32584566
272	1.084	0.053400792	-0.01538424	-0.073894749	0.86249507	0.072426644	0.10117499	-0.021940494	0.082702744	-0.10396136	0.72392032	0.060635634	0.13012133	-0.0094434029	0.093394993	-0.018608187	0.73614769	0.08789605	0.043054461	-0.093329707	0.10065302	-0.055264294	0.67955565	0.027363826	0.070893853	0.22088923	0.37291455	-0.10892697	0.63662837	0.44313459	0.14168935	0.21264001	0.37713275	0.015646561	0.61054654	0.42116157	0.019308039	0.34249011	0.73470553	-0.15070832	0.427563	0.7457329	0.1926817	0.43600472	0.77775552	-0.12666056	0.49634968	0.7944873	0.11446535	0.28890336	0.86344362	0.037316499	0.43212183	1.2780726	-0.15796369	0.41600875	1.2511864	0.20336032	0.34812342	1.2995658	0.018246634	0.47055875	0.95680114	-0.24900199	0.25511851	0.98168522	0.25475577	0.72423207	0.96834214	-0.18850173	0.28981978	0.75596768	0.32667058
273	1.088	0.053734704	-0.015466902	-0.073951396	0.86892874	0.064623582	0.10077047	-0.0183959	0.084901645	-0.10491718	0.72922456	0.060562127	0.1299085	-0.0052048644	0.095280395	-0.019703921	0.74256634	0.086013678	0.042744712	-0.088768516	0.10454463	-0.055916591	0.68268277	0.02986589	0.071242654	0.22920647	0.37171549	-0.10946883	0.64282937	0.44017584	0.14145271	0.22109136	0.3755835	0.015190963	0.61576872	0.41811868	0.019076659	0.35033043	0.73393617	-0.14986299	0.43675619	0.74532518	0.19326275	0.44399367	0.77696942	-0.12613361	0.50448303	0.79414558	0.11455119	0.29671642	0.86319572	0.037813182	0.43899461	1.277628	-0.15667273	0.42349926	1.2506078	0.20450636	0.3551866	1.2988548	0.019528649	0.47728217	0.95615052	-0.24791097	0.26306846	0.98075978	0.25551399	0.73078576	0.96710099	-0.1874822	0.29853344	0.75509098	0.32749286
274	1.092	0.05412402	-0.015525699	-0.074023011	0.87505071	0.057820829	0.10097689	-0.01452939	0.08708496	-0.10594671	0.73615563	0.060474479	0.13021186	-0.00063571375	0.097122692	-0.020872773	0.74931123	0.084608387	0.042966958	-0.08379974	0.10849413	-0.056604849	0.68598982	0.032571833	0.072399043	0.23780834	0.37039928	-0.11002231	0.64948407	0.43776378	0.14140806	0.22976031	0.37388516	0.014696792	0.6209905	0.41469526	0.019077571	0.35825469	0.73314751	-0.1489818	0.44567813	0.74503006	0.19383071	0.45202522	0.7761988	-0.12551671	0.51247288	0.79389715	0.11467733	0.3045541	0.86308135	0.038497873	0.44582678	1.2772284	-0.15537641	0.43101651	1.2500633	0.20565728	0.36222953	1.2982139	0.02082843	0.48476352	0.95538741	-0.24674127	0.27106277	0.97985756	0.25628343	0.73727232	0.96573386	-0.1864815	0.3073339	0.75422828	0.32831154
275	1.096	0.054632907	-0.01552744	-0.074094749	0.87971707	0.052480802	0.10095875	-0.01029231	0.089237987	-0.10705716	0.74362924	0.059487052	0.13085341	0.0043126524	0.098911549	-0.022101964	0.75478128	0.083372953	0.043269581	-0.078372819	0.11250744	-0.057338438	0.68882515	0.034709285	0.073861024	0.24670784	0.36899618	-0.11065032	0.65673505	0.43638165	0.14137191	0.23869452	0.37208191	0.014060703	0.62604908	0.41107712	0.019468003	0.36623871	0.73234091	-0.14812415	0.45441244	0.7450293	0.19445043	0.46005735	0.77546168	-0.12480012	0.52035816	0.7937517	0.1148742	0.31237744	0.86306586	0.039282812	0.45262334	1.2768812	-0.15408794	0.43856767	1.2495506	0.20681093	0.36928452	1.297649	0.022150185	0.49295587	0.95448297	-0.24529456	0.27911188	0.97897799	0.25707244	0.74368934	0.96424606	-0.1855039	0.31625569	0.75338649	0.32912648
276	1.1	0.05528506	-0.015470714	-0.074176004	0.88261259	0.048432793	0.10042317	-0.005661428	0.091340531	-0.10821467	0.75006233	0.057608691	0.13152649	0.0096712167	0.10063481	-0.023361637	0.75805773	0.082306417	0.043269167	-0.072447373	0.11657957	-0.058104786	0.690797	0.035968737	0.075022112	0.25592835	0.36754646	-0.11137873	0.66469493	0.43635024	0.14107404	0.24802025	0.37022229	0.013129558	0.6307953	0.40767126	0.020347624	0.37425629	0.73152254	-0.14734816	0.46302157	0.74542578	0.19513338	0.46805459	0.77477501	-0.12397738	0.52812934	0.79370875	0.1151462	0.32011976	0.86313806	0.040058292	0.45938973	1.2765976	-0.15282554	0.44616015	1.2490765	0.20796941	0.37636912	1.2971669	0.023492711	0.50066014	0.95358764	-0.2433118	0.28722585	0.97812088	0.25788593	0.7500287	0.96264523	-0.18455731	0.32537725	0.75258391	0.32994136
277	1.104	0.056074967	-0.015375413	-0.074304659	0.88406748	0.045312718	0.099651837	-0.00064585776	0.093384133	-0.10935718	0.75425586	0.055753791	0.13186244	0.015431042	0.10228291	-0.024610265	0.75932061	0.081549841	0.042822484	-0.066007005	0.12069784	-0.058883453	0.69190793	0.03649934	0.075545072	0.26547779	0.36607831	-0.1122145	0.67345327	0.43767229	0.14028038	0.25787538	0.36829262	0.011839794	0.63524656	0.40506415	0.021721096	0.38229152	0.73069772	-0.14668878	0.47149169	0.74621039	0.19584496	0.47599712	0.77414974	-0.12304356	0.53575701	0.79376017	0.11547818	0.32773924	0.86328905	0.04076712	0.46613435	1.2763873	-0.15161051	0.45378745	1.2486495	0.20913043	0.38347871	1.2967799	0.024843709	0.50624796	0.95301863	-0.24058341	0.29540839	0.97728903	0.25872124	0.7562806	0.96094155	-0.18364667	0.3347119	0.75183067	0.33075881
